<svg version="1.1" id="Capa_1" xmlns="http://www.w3.org/2000/svg" xmlns:xlink="http://www.w3.org/1999/xlink" x="0px" y="0px" viewBox="0 0 450 450" style="enable-background:new 0 0 450 450;" xml:space="preserve">
<g>
<path id="Facebook" class="st0" d="M174,129.8c0,8.6,0,46.8,0,46.8h-34.3v57.3H174V404h70.5V233.8h47.3c0,0,4.4-27.5,6.6-57.5
c-6.2,0-53.6,0-53.6,0s0-33.3,0-39.2c0-5.9,7.7-13.7,15.3-13.7c7.6,0,23.6,0,38.4,0c0-7.8,0-34.7,0-59.6c-19.8,0-42.3,0-52.2,0
C172.3,63.9,174,121.2,174,129.8z"/>
</g>
</svg>