<svg version="1.1" id="Capa_1" xmlns="http://www.w3.org/2000/svg" xmlns:xlink="http://www.w3.org/1999/xlink" x="0px" y="0px" viewBox="0 0 450 450" style="enable-background:new 0 0 450 450;" xml:space="preserve">
<g>
<path class="st0" d="M361.2,64.5H104.3C80.4,64.5,61,83.9,61,107.8v256.9c0,23.9,19.4,43.3,43.3,43.3h256.9
c23.9,0,43.3-19.4,43.3-43.3V107.8C404.6,83.9,385.2,64.5,361.2,64.5z M232.8,185.9c27.8,0,50.3,22.6,50.3,50.3
c0,27.8-22.6,50.3-50.3,50.3c-27.8,0-50.3-22.6-50.3-50.3C182.4,208.5,205,185.9,232.8,185.9z M364.6,346.4
c0,12-11.1,21.7-23.1,21.7H124.9c-12,0-23.9-9.7-23.9-21.7V238.1c0-12,12-21.8,23.9-21.8H137c2.3,0,4.4,1,6,2.7
c1.5,1.7,2.2,4,1.9,6.3c-0.5,3.6-0.7,7.3-0.7,11c0,48.9,39.8,88.7,88.7,88.7s88.7-39.8,88.7-88.7c0-3.7-0.3-7.4-0.7-11
c-0.3-2.3,0.4-4.5,1.9-6.3c1.5-1.7,3.7-2.7,6-2.7h12.9c12,0,23.1,9.8,23.1,21.8L364.6,346.4L364.6,346.4L364.6,346.4z M364.6,146.6
L364.6,146.6c0,12-9.7,21.7-21.7,21.7h-20.6c-12,0-21.7-9.7-21.7-21.7V126c0-12,9.7-21.7,21.7-21.7h20.6c12,0,21.7,9.7,21.7,21.7
V146.6z"/>
</g>
</svg>