<?xml version="1.0" encoding="utf-8"?>
<!-- Generator: Adobe Illustrator 19.1.0, SVG Export Plug-In . SVG Version: 6.00 Build 0)  -->
<svg version="1.1" id="Layer_1" xmlns="http://www.w3.org/2000/svg" xmlns:xlink="http://www.w3.org/1999/xlink" x="0px" y="0px"
	 viewBox="0 0 130 40" style="enable-background:new 0 0 130 40;" xml:space="preserve">
<style type="text/css">
	.st0{fill:#004B99;}
</style>
<g>
	<g>
		<path class="st0" d="M125,25.9c-1.4,1.1-3.8,1.3-5.2,0.6c-0.4-0.2-1.3-0.9-1.5-1.8c-0.2-1,0.1-2.1,1-2.6c0.5-0.3,1.3-0.3,1.8,0.1
			c0.4,0.3,0.5,0.8,0.4,1.3c-0.2,1.1-1.8,1.4-1.5,2.2c0.2,0.4,0.7,0.4,0.9,0.2c1.7-1.1,2.3-3,2.8-4.7c0.6-2.1,0.2-4.5-0.2-6.6
			c-2.2,3-4.7,6.7-7.9,8.4c-0.6,0.3-1.3,0.4-2,0.4c-1.7,2.1-3.8,4.1-6.5,3.5c-1-0.2-1.9-1.1-2.2-2c-0.4-1.2-0.2-2.7,0-3.9
			c-1.6,1.8-3.1,3.7-5,5.2c-0.7,0.6-1.7,0.8-2.6,0.4c-0.7-0.3-1.3-1-1.3-1.8c-0.2-2,0.9-3.6,1.5-5.3c-2.2,2.6-5,6.1-7.6,7.2
			c-1.2,0.4-2.7,0.4-3.6-0.6c-1.3-1.3-1.8-3.1-1.2-4.9l0,0c-1.6,2-3.7,4.2-5.9,5.4c-1,0.5-2.4,0.5-3.4-0.1c-1.4-0.9-1.9-2.4-1.9-3.9
			c0-0.5,0.1-1,0.2-1.3c-1.7,1.9-3.5,4.6-5.5,5.5c-0.7,0.3-1.7,0.3-2.3-0.2c-0.9-0.7-1.1-2.1-0.7-3.3c0.2-0.8,0.6-1.6,0.9-2.4l0,0
			c-1.6,2-3.6,4.8-5.5,5.8c-0.8,0.4-2,0.3-2.7-0.3c-1.7-1.8,0-4.6,0.7-6.6c-2.1,2.4-4.6,5.8-6.6,6.8c-0.6,0.4-1.7,0.4-2.4,0
			c-1.1-0.7-1.2-2-1-3.3c0.4-1.8,1.4-3.4,2.3-5.1l0,0c-2.2,2.8-5.4,7-7.4,8.2c-0.7,0.5-1.6,0.6-2.5,0.4c-0.7-0.2-1.4-0.8-1.6-1.7
			c-0.6-2.6,2.4-5.9,3.6-8.5c0.2-0.6-0.2-1-0.2-0.9c-0.1-0.2-1-0.7-1-0.7c-2.2,3.6-4.7,7.1-7.8,10.4c-1,1.1-2.2,1.8-3.6,1.4
			c-0.8-0.2-1.1-1.1-1.2-1.8c-0.1-0.5,0-1.1,0-1.5c-1.5,1.8-3.5,4.2-6.1,3.3c-0.8-0.3-1.5-1-1.7-1.9c-0.7-4.2,2.2-7.8,5.7-9.9
			c1.3-0.7,3.2-1.1,4.6-0.4c0.7,0.4,1,1.1,1.2,1.8c0.3-0.5,0.9-1.6,0.9-1.4c1,0,2.4,0,3.5,0l-5.5,10.4c-0.1,0.2-0.1,0.5,0,0.7
			c0.1,0.2,0.4,0.2,0.6,0.1c0.9-0.3,3.8-3.9,5.4-5.9c1.3-1.7,2.5-3.6,3.5-5.4c-0.3-0.5-0.5-1.2-0.3-1.8c0.2-0.5,0.6-1.2,1.2-1.2
			c0.4,0,0.6,0.1,0.6,0.4c0.2,0.9-0.3,1.6-0.6,2.3c1.2,0.9,3,1.5,3.5,3.1c0.2,0.9-0.1,1.8-0.6,2.6l-3,5.1c-0.1,0.2-0.1,0.5,0,0.6
			c0.1,0.3,0.5,0.3,0.7,0.2c1.4-0.6,3.4-3.2,4.9-4.9c4.7-5.7,8.1-12,11.4-18.3l4,0L51.4,24.7c-0.1,0.3-0.2,0.6-0.1,0.9
			c0.1,0.2,0.3,0.2,0.6,0.1c1.6-0.9,4.8-4.7,6.9-7.2l2.8-3.9h3.7c-1.7,3.4-3.6,6.7-5.3,10.1c-0.1,0.2-0.2,0.4-0.1,0.8
			c0.1,0.2,0.6,0.2,0.8,0.1c1.6-0.9,3.4-3.5,4.9-5.4c1.4-1.9,2.7-3.8,3.9-5.7h3.8l-0.1,0.1l-5.4,10.2c-0.2,0.3-0.1,0.7,0.2,0.8
			c0.4,0.2,0.8-0.2,1.1-0.4c3.8-3.3,5.8-7.8,10-10.7c1.3-0.8,3.1-1.2,4.6-0.5c0.7,0.4,1.2,1.1,1.3,1.9c0,0.8-0.3,1.7-1.1,2.1
			c-0.4,0.2-0.9,0.2-1.3,0c-0.4-0.2-0.6-0.6-0.7-0.9c-0.1-0.9,0.5-1.5,0.9-2.1c0.1-0.2,0-0.6-0.2-0.6c-0.9-0.1-1.5,0.9-2.1,1.6
			c-1.6,2.5-2.9,5.1-3.5,8.1c-0.1,0.5-0.1,1.1,0.3,1.6c0.7,0.5,1.7,0.1,2.3-0.3c4.9-3.1,6.6-9.1,11.9-11.4c1.3-0.4,2.9-0.3,3.8,0.7
			c0.5,0.6,0.7,1.3,0.6,2.1c-0.2,0.7-0.9,1.4-1.6,1.5c-0.4,0-0.8,0-1.1-0.3c-0.4-0.4-0.6-1-0.4-1.6c0.3-0.8,1.6-1.5,0.6-1.9
			c-1,0-1.6,1-2.2,1.7c-1.6,2.6-2.9,5.4-3.4,8.5c0,0.5,0.1,0.7,0.4,1.1c0.9,0.5,1.9-0.1,2.3-0.4c3.2-2.6,5.9-5.8,8.3-9l1.1-1.6h3.7
			c-1.6,3.4-3.5,6.6-5.1,9.9c-0.2,0.4-0.3,0.7-0.1,1c0.2,0.2,0.6,0.1,0.8,0c4-2.6,6.8-9.5,12.3-11.6c1.2-0.4,2.6-0.3,3.5,0.6
			c1.5,1.6,0.8,4.3,0,6c-0.2,0.5-0.5,1.1-0.8,1.4c1.4,0.2,2.4-0.9,3.4-1.8c2.6-2.7,4.5-5.7,6.8-8.5c0.2-0.2,0.7-0.6,1.2-0.5
			c0.2,0,0.3,0.2,0.3,0.3c0,1-1.4,1.3-1.6,2.3c-0.2,1.7,1.2,2.7,1.7,4.2C127.4,20.4,127.3,24.1,125,25.9 M122.1,8.2
			c-0.1-0.6-0.7-1.3-1.3-1.4c-0.8-0.1-1.6,0.1-2.1,0.7c-0.7,0.7-1,1.8-0.6,2.7c0.2,0.4,0.6,0.7,1.1,0.8c0.7,0.1,1.1-0.1,1.5-0.3
			c-0.4,1.1-1.4,2-2.3,2.7l0.3,0.5C120.7,12.8,122.5,10.6,122.1,8.2 M114.9,16.2c0-0.4-0.3-1-0.8-1.2c-0.8-0.2-1.5,0.4-2,1
			c-1.6,2.1-3.5,5.1-4.4,8.4c-0.1,0.6-0.2,1.1,0.2,1.4c0.3,0.2,0.7,0.2,1,0.2c1.5-0.5,2.9-2,3.7-3.4c-0.2-0.2-0.2-0.6-0.2-0.7
			c0-0.4,0.3-0.7,0.6-0.8c0.1-0.1,0.5-0.1,0.6,0C114.3,19.6,115,17.6,114.9,16.2 M107.1,7.9c-0.1-0.6-0.6-1.2-1.2-1.3
			c-0.7-0.2-1.4,0-1.9,0.3c-0.8,0.6-1.2,1.3-1.2,2.2c0,0.7,0.4,1.3,1,1.6c0.7,0.3,1.5,0.2,2.1-0.3C106.7,9.8,107.3,8.9,107.1,7.9
			 M32.2,16c-0.1-0.2-0.1-0.7-0.6-1c-0.7-0.3-1.4,0-1.9,0.5c-2.2,2.3-3.7,4.9-5,7.6c-0.3,0.7-0.8,1.9-0.3,2.5
			c0.2,0.2,0.5,0.2,0.8,0.2c1.8-0.5,4.1-3.6,5.5-5.7C31,19.6,32.3,17.6,32.2,16 M26.1,7.7c0.2-0.9,0.1-2.4-1.1-3.2
			c-1.4-1-3.7,0-4,0.1c-5.3,2-10.2,6.8-13.4,11.7c-1.3-0.2-2.6-0.8-3.3-2c-1.2-2.4,0.1-4.8,1.6-6.7c1.9-2.4,4.7-3.5,7.7-2.9
			c0.1-0.2,0.1-0.3,0.2-0.6c-3-0.6-6.6-0.6-8.9,1.5c-2,1.8-3.3,4.2-2.7,6.9c0.4,2.3,2.9,4.1,5.1,4.5c-1.1,2.1-2.1,4.1-2,6.7
			c0.1,2.3,1.2,4.6,3.5,5.5c3,1.2,6.2,0.1,8.4-1.9c2.1-1.8,3.5-4.4,2.9-7c-0.2-0.8-1-1.6-1.9-1.8c-1.5-0.4-3.1,0.1-4.3,1.1
			c-1.5,1.6-2,3.7-1.7,5.5c0.2,0.8,0.5,1,0.5,1s0.3,0,0.5,0c0.1-2.4,0.8-4.6,2.7-6.2c0.6-0.6,1.8-0.8,2.6-0.4c0.8,0.4,1,1.2,1,2
			c-0.1,2.4-1.6,4.4-3.6,5.9c-1.5,1-3.7,1.8-5.5,0.9C9.6,28,9.1,27,9.1,26.3c-0.1-3.4,1.4-6.2,2.9-9c3.8-0.3,7.2-1.8,10.3-4
			C24.1,11.8,25.6,9.9,26.1,7.7 M23.4,9.5c-2.6,3.9-6.5,6.5-10.9,7c2.3-4,5.2-8.2,9.2-10.9c0.7-0.4,1.7-0.8,2.6-0.4
			c0.5,0.3,0.5,1,0.4,1.6C24.5,7.7,23.9,8.6,23.4,9.5"/>
	</g>
	<g>
		<path class="st0" d="M7.3,37.8v-4H8v4H7.3z"/>
		<path class="st0" d="M10.3,34.4v3.4H9.7v-3.4H8.6v-0.5h2.8v0.5H10.3z"/>
		<path class="st0" d="M14.2,37.8l-0.5-1h-1.6l-0.5,1H11l1.9-4.1l1.9,4.1H14.2z M12.4,36.2h1.1l-0.4-0.9c0-0.1,0-0.1-0.1-0.2
			c0-0.1-0.1-0.2-0.1-0.3c0,0.1,0,0.2-0.1,0.2c0,0.1,0,0.1-0.1,0.2L12.4,36.2z"/>
		<path class="st0" d="M15.4,37.8v-4H16v3.4h1.4v0.6H15.4z"/>
		<path class="st0" d="M18.2,37.8v-4h0.6v4H18.2z"/>
		<path class="st0" d="M22.5,37.8l-0.5-1h-1.6l-0.5,1h-0.7l1.9-4.1l1.9,4.1H22.5z M20.7,36.2h1.1l-0.4-0.9c0-0.1,0-0.1-0.1-0.2
			c0-0.1-0.1-0.2-0.1-0.3c0,0.1,0,0.2-0.1,0.2c0,0.1,0,0.1-0.1,0.2L20.7,36.2z"/>
		<path class="st0" d="M23.7,37.8v-4.1l2.5,2.4c0.1,0.1,0.1,0.1,0.2,0.2c0.1,0.1,0.1,0.2,0.2,0.3v-2.8h0.6V38l-2.6-2.5
			c-0.1-0.1-0.1-0.1-0.2-0.2c-0.1-0.1-0.1-0.2-0.2-0.2v2.8H23.7z"/>
		<path class="st0" d="M33.3,34.8c-0.2-0.2-0.4-0.3-0.6-0.3c-0.2-0.1-0.4-0.1-0.6-0.1c-0.4,0-0.8,0.1-1.1,0.4
			c-0.3,0.3-0.4,0.6-0.4,1.1c0,0.4,0.1,0.8,0.4,1.1c0.3,0.3,0.6,0.4,1,0.4c0.2,0,0.5,0,0.7-0.1c0.2-0.1,0.4-0.2,0.6-0.4v0.7
			c-0.2,0.1-0.4,0.2-0.6,0.3c-0.2,0.1-0.4,0.1-0.7,0.1c-0.3,0-0.6,0-0.8-0.1c-0.3-0.1-0.5-0.2-0.7-0.4c-0.2-0.2-0.3-0.4-0.4-0.7
			c-0.1-0.3-0.2-0.5-0.2-0.8c0-0.3,0.1-0.6,0.2-0.8c0.1-0.3,0.3-0.5,0.5-0.7c0.2-0.2,0.4-0.3,0.7-0.4c0.3-0.1,0.5-0.2,0.8-0.2
			c0.2,0,0.5,0,0.7,0.1c0.2,0.1,0.4,0.2,0.6,0.3L33.3,34.8z"/>
		<path class="st0" d="M36.9,37.8l-0.5-1h-1.6l-0.5,1h-0.7l1.9-4.1l1.9,4.1H36.9z M35.1,36.2h1.1l-0.4-0.9c0-0.1,0-0.1-0.1-0.2
			c0-0.1-0.1-0.2-0.1-0.3c0,0.1,0,0.2-0.1,0.2c0,0.1,0,0.1-0.1,0.2L35.1,36.2z"/>
		<path class="st0" d="M38.1,37.8v-4h2.2v0.5h-1.6v1h1.6v0.6h-1.6v1.9H38.1z"/>
		<path class="st0" d="M41.1,37.8v-4h2.2v0.5h-1.6v1h1.6v0.6h-1.6v1.9H41.1z"/>
		<path class="st0" d="M44.2,37.8v-4h2.2v0.5h-1.6v1h1.6v0.6h-1.6v1.3h1.6v0.6H44.2z M44.9,33.4l0.5-0.7H46l-0.8,0.7H44.9z"/>
		<path class="st0" d="M48.8,35.7c0-0.2,0.1-0.4,0.2-0.6c0.2-0.2,0.3-0.2,0.6-0.2c0.2,0,0.4,0.1,0.6,0.2c0.2,0.2,0.2,0.3,0.2,0.6
			c0,0.2-0.1,0.4-0.2,0.6c-0.2,0.2-0.3,0.2-0.6,0.2c-0.2,0-0.4-0.1-0.6-0.2C48.8,36.1,48.8,36,48.8,35.7z"/>
		<path class="st0" d="M53.4,36v1.8h-0.6v-4h0.9c0.3,0,0.5,0,0.6,0.1c0.1,0,0.3,0.1,0.4,0.2c0.1,0.1,0.2,0.2,0.3,0.4
			c0.1,0.2,0.1,0.3,0.1,0.5c0,0.3-0.1,0.6-0.2,0.7c-0.2,0.2-0.4,0.3-0.7,0.3l1.4,1.8h-0.7L53.4,36L53.4,36z M53.4,35.5h0.1
			c0.3,0,0.6,0,0.7-0.1c0.1-0.1,0.2-0.2,0.2-0.4c0-0.2-0.1-0.4-0.2-0.5c-0.1-0.1-0.3-0.1-0.7-0.1h-0.1V35.5z"/>
		<path class="st0" d="M56,37.8v-4h2.2v0.5h-1.6v1h1.6v0.6h-1.6v1.3h1.6v0.6H56z"/>
		<path class="st0" d="M58.9,37l0.5-0.2c0,0.2,0.1,0.3,0.3,0.4c0.1,0.1,0.3,0.1,0.5,0.1c0.2,0,0.3-0.1,0.5-0.2
			c0.1-0.1,0.2-0.2,0.2-0.4c0-0.2-0.2-0.4-0.6-0.6c-0.1,0-0.1,0-0.1-0.1c-0.4-0.2-0.7-0.4-0.9-0.6c-0.1-0.2-0.2-0.4-0.2-0.6
			c0-0.3,0.1-0.6,0.3-0.8c0.2-0.2,0.5-0.3,0.9-0.3c0.3,0,0.5,0.1,0.7,0.2c0.2,0.1,0.3,0.3,0.4,0.5l-0.5,0.3
			c-0.1-0.1-0.2-0.2-0.3-0.3c-0.1-0.1-0.2-0.1-0.3-0.1c-0.2,0-0.3,0-0.4,0.1c-0.1,0.1-0.2,0.2-0.2,0.4c0,0.2,0.2,0.5,0.7,0.7
			c0,0,0.1,0,0.1,0c0.4,0.2,0.7,0.4,0.8,0.5c0.1,0.2,0.2,0.4,0.2,0.6c0,0.4-0.1,0.7-0.4,0.9c-0.2,0.2-0.6,0.3-1,0.3
			c-0.3,0-0.6-0.1-0.8-0.2C59.1,37.5,59,37.3,58.9,37z"/>
		<path class="st0" d="M63.6,34.4v3.4h-0.6v-3.4h-1.1v-0.5h2.8v0.5H63.6z"/>
		<path class="st0" d="M67.5,37.8l-0.5-1h-1.6l-0.5,1h-0.7l1.9-4.1l1.9,4.1H67.5z M65.7,36.2h1.1l-0.4-0.9c0-0.1,0-0.1-0.1-0.2
			c0-0.1-0.1-0.2-0.1-0.3c0,0.1,0,0.2-0.1,0.2c0,0.1,0,0.1-0.1,0.2L65.7,36.2z"/>
		<path class="st0" d="M68.6,33.8h0.6v2.4c0,0.4,0.1,0.6,0.2,0.8c0.2,0.2,0.4,0.3,0.7,0.3c0.3,0,0.6-0.1,0.7-0.3
			c0.2-0.2,0.2-0.4,0.2-0.8v-2.4h0.6v2.5c0,0.5-0.1,0.9-0.4,1.2c-0.3,0.3-0.7,0.4-1.2,0.4c-0.5,0-1-0.1-1.2-0.4
			c-0.3-0.3-0.4-0.7-0.4-1.2V33.8z"/>
		<path class="st0" d="M73.5,36v1.8h-0.6v-4h0.9c0.3,0,0.5,0,0.6,0.1c0.1,0,0.3,0.1,0.4,0.2c0.1,0.1,0.2,0.2,0.3,0.4
			c0.1,0.2,0.1,0.3,0.1,0.5c0,0.3-0.1,0.6-0.2,0.7c-0.2,0.2-0.4,0.3-0.7,0.3l1.4,1.8h-0.7L73.5,36L73.5,36z M73.5,35.5h0.1
			c0.3,0,0.6,0,0.7-0.1c0.1-0.1,0.2-0.2,0.2-0.4c0-0.2-0.1-0.4-0.2-0.5c-0.1-0.1-0.3-0.1-0.7-0.1h-0.1V35.5z"/>
		<path class="st0" d="M78.7,37.8l-0.5-1h-1.6l-0.5,1h-0.7l1.9-4.1l1.9,4.1H78.7z M76.9,36.2h1.1l-0.4-0.9c0-0.1,0-0.1-0.1-0.2
			c0-0.1-0.1-0.2-0.1-0.3c0,0.1,0,0.2-0.1,0.2c0,0.1,0,0.1-0.1,0.2L76.9,36.2z"/>
		<path class="st0" d="M79.9,37.8v-4.1l2.5,2.4c0.1,0.1,0.1,0.1,0.2,0.2c0.1,0.1,0.1,0.2,0.2,0.3v-2.8h0.6V38l-2.6-2.5
			c-0.1-0.1-0.1-0.1-0.2-0.2c-0.1-0.1-0.1-0.2-0.2-0.2v2.8H79.9z"/>
		<path class="st0" d="M85.8,34.4v3.4h-0.6v-3.4h-1.1v-0.5h2.8v0.5H85.8z"/>
		<path class="st0" d="M89,35.7c0-0.2,0.1-0.4,0.2-0.6c0.2-0.2,0.3-0.2,0.6-0.2c0.2,0,0.4,0.1,0.6,0.2c0.2,0.2,0.2,0.3,0.2,0.6
			c0,0.2-0.1,0.4-0.2,0.6c-0.2,0.2-0.3,0.2-0.6,0.2c-0.2,0-0.4-0.1-0.6-0.2C89.1,36.1,89,36,89,35.7z"/>
		<path class="st0" d="M93,37.8v-4h2.2v0.5h-1.6v1h1.6v0.6h-1.6v1.9H93z"/>
		<path class="st0" d="M100.1,35.8c0,0.3-0.1,0.5-0.2,0.8c-0.1,0.3-0.3,0.5-0.5,0.7c-0.2,0.2-0.4,0.3-0.7,0.5
			c-0.3,0.1-0.5,0.2-0.8,0.2c-0.3,0-0.6-0.1-0.8-0.2c-0.3-0.1-0.5-0.3-0.7-0.5c-0.2-0.2-0.4-0.4-0.5-0.7c-0.1-0.2-0.2-0.5-0.2-0.8
			c0-0.3,0.1-0.6,0.2-0.8c0.1-0.3,0.3-0.5,0.5-0.7c0.2-0.2,0.4-0.3,0.7-0.5c0.3-0.1,0.5-0.2,0.8-0.2c0.3,0,0.6,0.1,0.8,0.2
			c0.3,0.1,0.5,0.3,0.7,0.5c0.2,0.2,0.4,0.4,0.5,0.7C100.1,35.3,100.1,35.5,100.1,35.8z M99.5,35.8c0-0.2,0-0.4-0.1-0.6
			c-0.1-0.2-0.2-0.3-0.3-0.5c-0.1-0.1-0.3-0.2-0.5-0.3c-0.2-0.1-0.4-0.1-0.6-0.1c-0.2,0-0.4,0-0.6,0.1c-0.2,0.1-0.3,0.2-0.5,0.3
			c-0.1,0.1-0.2,0.3-0.3,0.5c-0.1,0.2-0.1,0.4-0.1,0.6c0,0.2,0,0.4,0.1,0.6c0.1,0.2,0.2,0.3,0.3,0.5c0.1,0.1,0.3,0.2,0.5,0.3
			c0.2,0.1,0.4,0.1,0.6,0.1c0.2,0,0.4,0,0.6-0.1c0.2-0.1,0.3-0.2,0.5-0.3c0.1-0.1,0.2-0.3,0.3-0.5C99.4,36.2,99.5,36,99.5,35.8z"/>
		<path class="st0" d="M105.1,35.8c0,0.3-0.1,0.5-0.2,0.8c-0.1,0.3-0.3,0.5-0.5,0.7c-0.2,0.2-0.4,0.3-0.7,0.5
			c-0.3,0.1-0.5,0.2-0.8,0.2c-0.3,0-0.6-0.1-0.8-0.2c-0.3-0.1-0.5-0.3-0.7-0.5c-0.2-0.2-0.4-0.4-0.5-0.7c-0.1-0.2-0.2-0.5-0.2-0.8
			c0-0.3,0.1-0.6,0.2-0.8c0.1-0.3,0.3-0.5,0.5-0.7c0.2-0.2,0.4-0.3,0.7-0.5c0.3-0.1,0.5-0.2,0.8-0.2c0.3,0,0.6,0.1,0.8,0.2
			c0.3,0.1,0.5,0.3,0.7,0.5c0.2,0.2,0.4,0.4,0.5,0.7C105,35.3,105.1,35.5,105.1,35.8z M104.4,35.8c0-0.2,0-0.4-0.1-0.6
			c-0.1-0.2-0.2-0.3-0.3-0.5c-0.1-0.1-0.3-0.2-0.5-0.3c-0.2-0.1-0.4-0.1-0.6-0.1c-0.2,0-0.4,0-0.6,0.1c-0.2,0.1-0.3,0.2-0.5,0.3
			c-0.1,0.1-0.2,0.3-0.3,0.5c-0.1,0.2-0.1,0.4-0.1,0.6c0,0.2,0,0.4,0.1,0.6c0.1,0.2,0.2,0.3,0.3,0.5c0.1,0.1,0.3,0.2,0.5,0.3
			c0.2,0.1,0.4,0.1,0.6,0.1c0.2,0,0.4,0,0.6-0.1c0.2-0.1,0.3-0.2,0.5-0.3c0.1-0.1,0.2-0.3,0.3-0.5C104.4,36.2,104.4,36,104.4,35.8z"
			/>
		<path class="st0" d="M106,37.8v-4h0.9c0.6,0,1,0,1.2,0.1c0.2,0.1,0.4,0.2,0.6,0.3c0.2,0.2,0.4,0.4,0.5,0.7
			c0.1,0.3,0.2,0.6,0.2,0.9c0,0.4-0.1,0.7-0.2,0.9c-0.1,0.3-0.3,0.5-0.5,0.7c-0.2,0.1-0.4,0.2-0.6,0.3c-0.2,0.1-0.6,0.1-1,0.1h-0.2
			H106z M106.6,37.2h0.5c0.3,0,0.5,0,0.7-0.1c0.1,0,0.3-0.1,0.4-0.2c0.2-0.1,0.3-0.3,0.3-0.5c0.1-0.2,0.1-0.4,0.1-0.7
			c0-0.3,0-0.5-0.1-0.7c-0.1-0.2-0.2-0.4-0.3-0.5c-0.1-0.1-0.2-0.2-0.4-0.2c-0.2,0-0.4-0.1-0.7-0.1h-0.2h-0.2V37.2z"/>
		<path class="st0" d="M110,37l0.5-0.2c0,0.2,0.1,0.3,0.3,0.4c0.1,0.1,0.3,0.1,0.5,0.1c0.2,0,0.3-0.1,0.5-0.2
			c0.1-0.1,0.2-0.2,0.2-0.4c0-0.2-0.2-0.4-0.6-0.6c-0.1,0-0.1,0-0.1-0.1c-0.4-0.2-0.7-0.4-0.9-0.6c-0.1-0.2-0.2-0.4-0.2-0.6
			c0-0.3,0.1-0.6,0.3-0.8s0.5-0.3,0.9-0.3c0.3,0,0.5,0.1,0.7,0.2c0.2,0.1,0.3,0.3,0.4,0.5l-0.5,0.3c-0.1-0.1-0.2-0.2-0.3-0.3
			c-0.1-0.1-0.2-0.1-0.3-0.1c-0.2,0-0.3,0-0.4,0.1s-0.2,0.2-0.2,0.4c0,0.2,0.2,0.5,0.7,0.7c0,0,0.1,0,0.1,0c0.4,0.2,0.7,0.4,0.8,0.5
			c0.1,0.2,0.2,0.4,0.2,0.6c0,0.4-0.1,0.7-0.4,0.9c-0.2,0.2-0.6,0.3-1,0.3c-0.3,0-0.6-0.1-0.8-0.2C110.2,37.5,110.1,37.3,110,37z"/>
		<path class="st0" d="M113.4,37.8v-4h0.6v1.5h2v-1.5h0.6v4H116v-1.9h-2v1.9H113.4z"/>
		<path class="st0" d="M121.8,35.8c0,0.3-0.1,0.5-0.2,0.8c-0.1,0.3-0.3,0.5-0.5,0.7c-0.2,0.2-0.4,0.3-0.7,0.5
			c-0.3,0.1-0.5,0.2-0.8,0.2c-0.3,0-0.6-0.1-0.8-0.2c-0.3-0.1-0.5-0.3-0.7-0.5c-0.2-0.2-0.4-0.4-0.5-0.7c-0.1-0.2-0.2-0.5-0.2-0.8
			c0-0.3,0.1-0.6,0.2-0.8c0.1-0.3,0.3-0.5,0.5-0.7c0.2-0.2,0.4-0.3,0.7-0.5c0.3-0.1,0.5-0.2,0.8-0.2c0.3,0,0.6,0.1,0.8,0.2
			c0.3,0.1,0.5,0.3,0.7,0.5c0.2,0.2,0.4,0.4,0.5,0.7C121.7,35.3,121.8,35.5,121.8,35.8z M121.1,35.8c0-0.2,0-0.4-0.1-0.6
			c-0.1-0.2-0.2-0.3-0.3-0.5c-0.1-0.1-0.3-0.2-0.5-0.3c-0.2-0.1-0.4-0.1-0.6-0.1c-0.2,0-0.4,0-0.6,0.1c-0.2,0.1-0.3,0.2-0.5,0.3
			c-0.1,0.1-0.2,0.3-0.3,0.5c-0.1,0.2-0.1,0.4-0.1,0.6c0,0.2,0,0.4,0.1,0.6c0.1,0.2,0.2,0.3,0.3,0.5c0.1,0.1,0.3,0.2,0.5,0.3
			c0.2,0.1,0.4,0.1,0.6,0.1c0.2,0,0.4,0,0.6-0.1c0.2-0.1,0.3-0.2,0.5-0.3c0.1-0.1,0.2-0.3,0.3-0.5C121.1,36.2,121.1,36,121.1,35.8z"
			/>
		<path class="st0" d="M123.3,36v1.8h-0.6v-4h1c0.3,0,0.5,0,0.6,0c0.1,0,0.3,0.1,0.4,0.2c0.1,0.1,0.2,0.2,0.3,0.4
			c0.1,0.2,0.1,0.3,0.1,0.5c0,0.2,0,0.4-0.1,0.5c-0.1,0.2-0.2,0.3-0.3,0.4c-0.1,0.1-0.2,0.1-0.4,0.2c-0.1,0-0.3,0-0.6,0h-0.1H123.3z
			 M123.3,35.5h0.2c0.4,0,0.6,0,0.7-0.1c0.1-0.1,0.2-0.2,0.2-0.4c0-0.2-0.1-0.4-0.2-0.4c-0.1-0.1-0.4-0.1-0.7-0.1h-0.2V35.5z"/>
	</g>
</g>
</svg>
