<?xml version="1.0" encoding="utf-8"?>
<!-- Generator: Adobe Illustrator 19.1.0, SVG Export Plug-In . SVG Version: 6.00 Build 0)  -->
<svg version="1.1" id="Layer_1" xmlns="http://www.w3.org/2000/svg" xmlns:xlink="http://www.w3.org/1999/xlink" x="0px" y="0px"
	 viewBox="0 0 140 60" style="enable-background:new 0 0 140 60;" xml:space="preserve">
<style type="text/css">
	.st0{fill:#004B99;}
</style>
<g>
	<g>
		<path class="st0" d="M126.5,23.5c0,0-0.3,1.2,0.2,2.6c0.5,1.4-0.5,1.1-0.8-0.3c-0.9-3.6,1-6.8,4.3-6.8c3.3,0,6,3,6,6.8
			c0,3.7-2.7,6.8-6,6.8c0,0-7.6,1.3-12.7-9.9C112.3,11.4,108,3.2,108,3.2h5.5c0,0,7.4,17,9.9,21c2.5,4,7.1,8.6,10.8,3.5
			c0,0,0.8-1.1,0.5-2.4c-0.3-1.3-1.4-4-3.6-4.4C128.8,20.4,126.9,21.3,126.5,23.5"/>
		<path class="st0" d="M117.6,14.4c0,0,6.9,5.5,13.8,0.7c6.9-4.8-0.9-12.6-9.4-11.7l0.2-0.6c0.2,0,18.9-1.2,14.6,11.5
			c-2.5,6.2-14.5,4.9-18.8,1.5L117.6,14.4"/>
		<path class="st0" d="M7.5,17.7c0,0-0.7,1.6-2.5,2.3c-1.8,0.8-1.5,4.2,2.6,10c3,4.5,2.9,8,1.7,9.5c-1.2,2-6.9,4.3-8.5-3.7
			c-1-0.2,0,0-0.9-0.2c0,0,0.7,9.5,9,8.1c4.7-1.1,6.8-8.7,3.1-14.3c-3.7-5.6-5.8-7.9-4.9-9.3c0.8-1.4,2.6-1.5,2.1-3.4
			c-0.4-1.9-1.3-1.5-1.9-0.8C6.7,16.5,7,17.3,7.5,17.7"/>
		<path class="st0" d="M27.9,28c1.1,2.9,2.9,3.8,4.5,3.3c5.7-2.8-1.1-10.2-3.1-12.4c3.1,0.2,5.1,1.3,7.1,4.2
			c3.7,6.2,8.5,9.9,10.1,7.2c2.7-5.6-5.9-11.4-5.9-11.4h4.4c0,0,7.3,8.9,9.1,10.5c1.8,1.6,2.6,2,2.5,0.6c-0.4-2.4-6.2-11.2-6.2-11.2
			h4.2c0,0,4.3,6.8,7.3,10.3c3,3.5,4.2,2.2,3.6,0.7c-1.2-2.8-6.4-11-6.4-11h4.5c0,0,7.6,10.1,9.7,11.4c2.1,1.3,4.7-2.6-1.9-8.8
			c-1.4-1.1-2.8-2-2-0.3c0.6,0.4,1.8,1.7,0,2.1c-1.8,0.3-4.2-3.5-2.1-4.7c2.1-1.3,8.4,2,11.4,7.7c3,5.7-2.8,8-6.2,5
			c-3.4-3-4.7-5.2-4.7-5.2s2.6,5.8-1.2,6.4C62.9,33,58.5,26,58.5,26s3.3,6.2-1,6.5c-3.6,0.2-7.6-5.9-7.6-5.9s0.4,5.9-4.1,5.9
			c-4.6,0.1-8.5-6.1-8.5-6.1s2,6-4.9,6.1c-0.6,0-2.7,0.2-5.3-3.9"/>
		<path class="st0" d="M30.1,32.5c0,0-0.8-3.7-2.8-7.2c-3.7-6.7-8.9-8.3-11.5-6.5c-2.6,1.8-0.4,7.9,2.5,11.1
			c2.9,3.7,7.4,2.6,7.4,2.6c1.5,3.3,1.2,5.8,0.3,7c-1.2,2-6.9,4.3-8.5-3.7c-1-0.2,0,0-0.9-0.2c0,0,0.7,9.5,9,8.1
			C29.5,42.9,31.6,37.5,30.1,32.5 M24,31c-1.2,0.5-2.8,0.3-4.9-2.3c-2.1-2.6-4.9-10-1.5-8.9c3.1,1.2,5.3,5.2,6.5,8.3
			C24.5,28.6,25,30.4,24,31"/>
		<path class="st0" d="M66.4,11.8c-0.2,1.1,0.4,2.1,1.3,2.8c0.7,0.5,1.6,0.6,2.3,0.3c0.6-0.3,1.1-1,1.1-1.8c0-1-0.4-1.8-1.3-2.4
			c-0.6-0.4-1.4-0.6-2.1-0.3C67.1,10.5,66.6,11.2,66.4,11.8"/>
		<path class="st0" d="M60.8,11.8c-0.2,1.1,0.4,2.1,1.3,2.8c0.7,0.5,1.6,0.6,2.3,0.3c0.6-0.3,1.1-1,1.1-1.8c0-1-0.4-1.8-1.3-2.4
			c-0.6-0.4-1.4-0.6-2.1-0.3C61.4,10.5,60.9,11.2,60.8,11.8"/>
		<path class="st0" d="M41.7,37.7c-0.2,1.1,0.4,2.1,1.3,2.8c0.7,0.5,1.6,0.6,2.3,0.3c0.6-0.3,1.1-1,1.1-1.8c0-1-0.4-1.8-1.3-2.4
			c-0.6-0.4-1.4-0.6-2.1-0.3C42.3,36.4,41.8,37,41.7,37.7"/>
		<path class="st0" d="M36,37.7c-0.2,1.1,0.4,2.1,1.3,2.8c0.7,0.5,1.6,0.6,2.3,0.3c0.6-0.3,1.1-1,1.1-1.8c0-1-0.4-1.8-1.3-2.4
			c-0.6-0.4-1.4-0.6-2.1-0.3C36.7,36.4,36.2,37,36,37.7"/>
		<path class="st0" d="M1.2,11.8c-0.2,1.1,0.4,2.1,1.3,2.8c0.7,0.5,1.6,0.6,2.3,0.3c0.6-0.3,1.1-1,1.1-1.8c0-1-0.4-1.8-1.3-2.4
			c-0.6-0.4-1.4-0.6-2.1-0.3C1.9,10.5,1.4,11.2,1.2,11.8"/>
		<path class="st0" d="M51.3,11.8c-0.2,1.1,0.4,2.1,1.3,2.8c0.7,0.5,1.6,0.6,2.3,0.3c0.6-0.3,1.1-1,1.1-1.8c0-1-0.4-1.8-1.3-2.4
			c-0.6-0.4-1.4-0.6-2.1-0.3C52,10.5,51.5,11.2,51.3,11.8"/>
		<path class="st0" d="M47.3,6.8c-0.2,1.1,0.4,2.1,1.3,2.8c0.7,0.5,1.6,0.6,2.3,0.3c0.6-0.3,1.1-1,1.1-1.8c0-1-0.4-1.8-1.3-2.4
			c-0.6-0.4-1.4-0.6-2.1-0.3C48,5.5,47.5,6.2,47.3,6.8"/>
		<path class="st0" d="M45.7,11.8c-0.2,1.1,0.4,2.1,1.3,2.8c0.7,0.5,1.6,0.6,2.3,0.3c0.6-0.3,1.1-1,1.1-1.8c0-1-0.4-1.8-1.3-2.4
			c-0.6-0.4-1.4-0.6-2.1-0.3C46.3,10.5,45.8,11.2,45.7,11.8"/>
		<path class="st0" d="M92.5,30.9c2.9,2.3,7,2.1,9-0.5c0,0,5.6-5.1,0-16.1c-5.6-11.1-6-11.1-6-11.1H90c0,0,7.4,12.4,9,16.8
			c1.7,4.4,2.4,10.8-3.9,10.7c0,0-1.3-0.1-2.2-1.1L92.5,30.9"/>
		<path class="st0" d="M96.4,32.5c0,0-0.8-3.7-2.8-7.2c-3.7-6.7-8.9-8.3-11.5-6.5c-2.6,1.8-0.4,7.9,2.5,11.1
			c2.9,3.7,7.4,2.6,7.4,2.6c1.5,3.3,1.2,5.8,0.3,7c-1.2,2-6.9,4.3-8.5-3.7c-1-0.2,0,0-0.9-0.2c0,0,0.7,9.5,9,8.1
			C95.7,42.9,97.9,37.5,96.4,32.5 M90.3,31c-1.2,0.5-2.8,0.3-4.9-2.3c-2.1-2.6-4.9-10-1.5-8.9c3.1,1.2,5.3,5.2,6.5,8.3
			C90.7,28.6,91.2,30.4,90.3,31"/>
		<path class="st0" d="M110.2,17.4c0,0-0.7,1.6-2.5,2.3c-1.8,0.8-1.5,4.2,2.6,10c3,4.5,2.8,8,1.7,9.5c-1.2,2-6.9,4.3-8.5-3.7
			c-1-0.2,0,0-0.9-0.2c0,0,0.7,9.5,9,8.1c4.7-1.1,6.8-8.7,3.1-14.3c-3.7-5.6-5.7-7.9-4.9-9.3c0.8-1.4,2.6-1.5,2.1-3.4
			c-0.4-1.9-1.3-1.5-1.9-0.8C109.5,16.3,109.8,17.1,110.2,17.4"/>
	</g>
	<g>
		<path class="st0" d="M5.3,54.5h-1c-0.7,0-1-0.4-1-1H1.9c-0.7,0-1.1-0.5-1.1-1.4c0-0.6,0.2-1.1,0.5-1.4c0.2-0.3,0.6-0.4,0.9-0.4
			c0.4,0,0.9,0.2,1,0.5h0v-0.5h0.7v3c0,0.3,0.1,0.5,0.4,0.5h1V54.5z M3.3,52.8l0-1.4C3,51,2.8,50.8,2.4,50.8c-0.2,0-0.4,0.1-0.6,0.3
			c-0.2,0.2-0.3,0.5-0.3,1c0,0.2,0,0.4,0.1,0.5c0.1,0.2,0.2,0.3,0.5,0.3H3.3z M2.2,49.5H1.5v-0.7h0.7V49.5z M3.4,49.5H2.7v-0.7h0.7
			V49.5z"/>
		<path class="st0" d="M10.3,54.5H9.2c-0.3,0.6-0.7,0.9-1.4,0.9c-0.7,0-1.1-0.3-1.4-0.9H5.1v-0.6h1c0-0.1,0-0.2,0-0.3
			c0-1.1,0.6-1.8,1.6-1.8c0.5,0,0.9,0.2,1.2,0.6c0.3,0.3,0.4,0.8,0.4,1.2c0,0.1,0,0.2,0,0.3h1L10.3,54.5z M8.7,53.5
			c0-0.4-0.1-0.7-0.3-1c-0.2-0.2-0.4-0.3-0.7-0.3c-0.3,0-0.5,0.1-0.6,0.3c-0.2,0.2-0.3,0.5-0.3,1c0,0.4,0.1,0.7,0.3,0.9
			c0.2,0.2,0.4,0.3,0.7,0.3c0.3,0,0.5-0.1,0.6-0.3C8.6,54.3,8.7,53.9,8.7,53.5z"/>
		<path class="st0" d="M16.1,54.5h-1.9c-0.4,0-0.7-0.2-1-0.5c-0.6,0.3-1.1,0.5-1.6,0.5h-1.6v-0.6h1.6c0.4,0,0.8-0.1,1.3-0.3
			c-0.4-0.5-0.7-0.8-1-1c-0.4-0.3-0.8-0.5-1.3-0.5v-0.8c0.6-0.5,1.4-0.8,2.4-0.8c0.7,0,1.3,0.2,1.9,0.5c0.4,0.2,0.6,0.4,0.8,0.6
			c-0.5,0.9-1.1,1.6-2,2.2c0.1,0.1,0.2,0.1,0.4,0.1h0.3h1.7V54.5z M15,51.6c-0.2-0.1-0.3-0.2-0.5-0.3C14,51.1,13.6,51,13.1,51
			c-0.4,0-0.8,0-1.1,0.1c-0.2,0.1-0.5,0.2-0.8,0.3c0.7,0.2,1.5,0.8,2.2,1.8C14,52.8,14.5,52.3,15,51.6z"/>
		<path class="st0" d="M22.4,54.5h-6.5v-0.6H17l0-5h0.7l-0.1,4.2c0.4-0.8,0.9-1.4,1.5-1.8c0.5-0.3,0.9-0.4,1.4-0.3
			c0.8,0.1,1.4,0.5,1.7,1.3C22.3,52.8,22.4,53.5,22.4,54.5z M21.8,53.9c0-0.4-0.1-0.8-0.2-1.1c-0.2-0.8-0.6-1.1-1.2-1.2
			c-1.2-0.1-2.1,0.7-2.8,2.3H21.8z"/>
		<path class="st0" d="M25,48.1c-0.2,0.2-0.4,0.4-0.6,0.4c-0.2,0-0.8-0.3-0.9-0.3c-0.1,0-0.2,0.1-0.4,0.3L23,48.2
			c0.2-0.2,0.4-0.4,0.6-0.4c0.2,0,0.8,0.3,0.9,0.3c0.1,0,0.3-0.1,0.4-0.3L25,48.1z M27.5,48.3v4.5c0,1.1-0.5,1.7-1.4,1.7h-2.7v-0.7
			h1.5l-1.2-4.8h0.7l1.2,4.8h0.3c0.7,0,1-0.3,1-1.3v-4.2H27.5z"/>
		<path class="st0" d="M29.6,54.5h-0.7l0-6.2h0.7L29.6,54.5z"/>
		<path class="st0" d="M36,53.9c0,0.1,0,0.3,0,0.6h-0.8c-0.4,0-0.7-0.2-0.9-0.6c0,0.8-0.3,1.4-0.8,1.8c-0.4,0.5-1,0.8-1.7,0.8
			c-0.1-0.1-0.2-0.3-0.3-0.6c0.6,0,1.1-0.2,1.5-0.7c0.4-0.4,0.6-1,0.6-1.6l0-2.7h0.7l0,1.9c0,0.3,0.1,0.5,0.3,0.7
			c0.2,0.2,0.3,0.2,0.5,0.2H36z"/>
		<path class="st0" d="M41.5,54.5h-5.8l0-0.6h4.1c0-0.7-0.2-1.3-0.6-1.7c-0.4-0.4-0.8-0.6-1.2-0.6c-0.4,0-0.9,0.1-1.3,0.4l-0.3-0.6
			c0.6-0.3,1.1-0.4,1.5-0.4c0.8,0,1.5,0.3,1.9,0.9c0.4,0.5,0.6,1.2,0.6,2h1V54.5z M38.3,55.9h-0.7v-0.7h0.7V55.9z"/>
		<path class="st0" d="M45.4,54.5h-0.8c-0.3,0-0.5-0.1-0.7-0.4c-0.1-0.1-0.2-0.3-0.2-0.4c-0.2,0.5-0.7,0.7-1.2,0.8h-1.1v-0.6h0.3
			c0.3,0,0.5,0,0.5,0c0.2,0,0.3,0,0.5-0.1c0.2-0.1,0.3-0.3,0.3-0.5c0,0.2,0-0.6,0-2.2h0.7c0,0.6,0,1.2,0,1.8c0,0.3,0.1,0.6,0.3,0.8
			c0.2,0.2,0.3,0.3,0.5,0.3h0.9V54v0.3V54.5z M43.1,50.2h-0.7v-0.7h0.7V50.2z M44.2,50.2h-0.7v-0.7h0.7V50.2z"/>
		<path class="st0" d="M49.3,52.7c0,1.1-0.6,1.8-1.6,1.8h-2.7v-0.6h1.4c-0.3-0.3-0.4-0.7-0.4-1.2c0-1.1,0.6-1.8,1.6-1.8
			c0.5,0,0.9,0.2,1.2,0.6C49.1,51.8,49.3,52.2,49.3,52.7z M48.6,52.7c0-0.4-0.1-0.7-0.3-0.9c-0.2-0.2-0.4-0.3-0.7-0.3
			s-0.5,0.1-0.6,0.3c-0.2,0.2-0.3,0.5-0.3,0.9c0,0.4,0.1,0.7,0.3,0.9c0.2,0.2,0.4,0.3,0.7,0.3c0.3,0,0.5-0.1,0.6-0.3
			C48.5,53.4,48.6,53.1,48.6,52.7z"/>
		<path class="st0" d="M51.7,52.1c0-0.3,0.1-0.5,0.3-0.6c0.2-0.2,0.4-0.3,0.6-0.3c0.2,0,0.5,0.1,0.6,0.3c0.2,0.2,0.3,0.4,0.3,0.6
			c0,0.2-0.1,0.5-0.3,0.6c-0.2,0.2-0.4,0.3-0.6,0.3c-0.3,0-0.5-0.1-0.6-0.3C51.8,52.6,51.7,52.4,51.7,52.1z"/>
		<path class="st0" d="M62.5,54.5c-0.8,0-1.4-0.3-1.7-0.8c-0.3,0.6-0.7,0.8-1.4,0.8c-0.5,0-0.9-0.2-1.2-0.6
			c-0.3-0.4-0.4-0.8-0.4-1.3h-0.6c-0.4,0-0.6,0.3-0.6,0.8l0,3.1h-0.7l0-3.3c0-0.8,0.4-1.2,1.2-1.2h0.3c0.2,0,0.3,0,0.4,0
			c0.2-0.7,0.7-1.1,1.5-1.1c0.4,0,0.8,0.1,1.1,0.4c0.3,0.3,0.4,0.6,0.5,1c0.1,0.6,0.2,1,0.5,1.2c0.2,0.3,0.6,0.4,1.1,0.4V54.5z
			 M60.3,52.7c0-0.4-0.1-0.7-0.3-0.9c-0.2-0.2-0.4-0.3-0.7-0.3c-0.3,0-0.5,0.1-0.6,0.3c-0.2,0.2-0.3,0.5-0.3,0.9
			c0,0.4,0.1,0.7,0.3,0.9c0.2,0.2,0.4,0.3,0.7,0.3c0.3,0,0.5-0.1,0.6-0.3C60.2,53.4,60.3,53.1,60.3,52.7z"/>
		<path class="st0" d="M68.3,54.5h-1.9c-0.4,0-0.7-0.2-1-0.5c-0.6,0.3-1.1,0.5-1.6,0.5h-1.6v-0.6h1.6c0.4,0,0.8-0.1,1.3-0.3
			c-0.4-0.5-0.7-0.8-1-1c-0.4-0.3-0.8-0.5-1.3-0.5v-0.8c0.6-0.5,1.4-0.8,2.4-0.8c0.7,0,1.3,0.2,1.9,0.5c0.4,0.2,0.6,0.4,0.8,0.6
			c-0.5,0.9-1.1,1.6-2,2.2c0.1,0.1,0.2,0.1,0.4,0.1h0.3h1.7V54.5z M67.1,51.6c-0.2-0.1-0.3-0.2-0.5-0.3c-0.4-0.2-0.9-0.3-1.4-0.3
			c-0.4,0-0.8,0-1.1,0.1c-0.2,0.1-0.5,0.2-0.8,0.3c0.7,0.2,1.5,0.8,2.2,1.8C66.2,52.8,66.7,52.3,67.1,51.6z"/>
		<path class="st0" d="M76,54.5h-8v-0.6h1l0-5h0.7l-0.1,4.2c0.4-0.8,0.9-1.4,1.5-1.8c0.5-0.3,0.9-0.4,1.3-0.3c1.3,0.1,2,1.1,2.1,2.9
			H76V54.5z M73.9,53.9c0-0.4-0.1-0.8-0.2-1.1c-0.2-0.8-0.6-1.1-1.2-1.2c-1.2-0.1-2.1,0.7-2.8,2.3H73.9z"/>
		<path class="st0" d="M79.9,52.7c0,1.1-0.6,1.8-1.6,1.8h-2.7v-0.6h1.4c-0.3-0.3-0.4-0.7-0.4-1.2c0-1.1,0.6-1.8,1.6-1.8
			c0.5,0,0.9,0.2,1.2,0.6C79.8,51.8,79.9,52.2,79.9,52.7z M79.3,52.7c0-0.4-0.1-0.7-0.3-0.9c-0.2-0.2-0.4-0.3-0.7-0.3
			c-0.3,0-0.5,0.1-0.6,0.3c-0.2,0.2-0.3,0.5-0.3,0.9c0,0.4,0.1,0.7,0.3,0.9c0.2,0.2,0.4,0.3,0.7,0.3c0.3,0,0.5-0.1,0.6-0.3
			C79.2,53.4,79.3,53.1,79.3,52.7z"/>
		<path class="st0" d="M82.3,52.1c0-0.3,0.1-0.5,0.3-0.6c0.2-0.2,0.4-0.3,0.6-0.3c0.2,0,0.5,0.1,0.6,0.3c0.2,0.2,0.3,0.4,0.3,0.6
			c0,0.2-0.1,0.5-0.3,0.6c-0.2,0.2-0.4,0.3-0.6,0.3c-0.3,0-0.5-0.1-0.6-0.3C82.4,52.6,82.3,52.4,82.3,52.1z"/>
		<path class="st0" d="M94.1,53.9v0.6h-0.8c-0.3,0-0.5-0.1-0.7-0.3c-0.2-0.2-0.4-0.5-0.4-0.8c0-0.5-0.1-1-0.2-1.2
			c-0.2-0.4-0.5-0.6-1-0.6c-0.3,0-0.6,0.1-0.8,0.3c-0.2,0.2-0.3,0.5-0.3,0.8h1.7l0,1.2c0,0.7-0.2,1.4-0.7,1.9
			c-0.5,0.5-1.1,0.8-1.8,0.8c-0.7,0-1.3-0.3-1.8-0.8c-0.5-0.5-0.7-1.2-0.7-1.9c0-0.2,0-0.6,0-1.2h0.7c0,0.2,0,0.6,0,1.2
			c0,0.6,0.2,1,0.6,1.4c0.4,0.4,0.8,0.6,1.3,0.6c0.5,0,1-0.2,1.3-0.6c0.4-0.4,0.6-0.9,0.6-1.4l0-0.5h-1.8c0-1.6,0.6-2.4,1.8-2.4
			c0.7,0,1.2,0.3,1.5,1c0.1,0.3,0.2,0.8,0.3,1.4c0,0.3,0.3,0.6,0.6,0.6H94.1z M88.9,58h-0.7v-0.7h0.7V58z M90.1,58h-0.7v-0.7h0.7V58
			z"/>
		<path class="st0" d="M95.8,53.2c0,0.8-0.5,1.2-1.3,1.2h-0.6v-0.6h0.6c0.4,0,0.6-0.2,0.6-0.6c0-0.6,0-1.4,0-2.4c0-1.2,0-2,0-2.5
			h0.7c0,0.4,0,1.3,0,2.5C95.8,51.8,95.8,52.6,95.8,53.2z"/>
		<path class="st0" d="M98.9,54.5h-0.8c-0.3,0-0.5-0.1-0.7-0.3c-0.2-0.2-0.3-0.5-0.3-0.8l0-5h0.7l0,4.9c0,0.4,0.2,0.6,0.4,0.6h0.7
			V54.5z"/>
		<path class="st0" d="M106.7,54.5h-8v-0.6h1l0-5h0.7l-0.1,4.2c0.4-0.8,0.9-1.4,1.5-1.8c0.5-0.3,0.9-0.4,1.3-0.3
			c1.3,0.1,2,1.1,2.1,2.9h1.4V54.5z M104.6,53.9c0-0.4-0.1-0.8-0.2-1.1c-0.2-0.8-0.6-1.1-1.2-1.2c-1.2-0.1-2.1,0.7-2.8,2.3H104.6z"
			/>
		<path class="st0" d="M108.8,53.2c0,0.8-0.5,1.2-1.3,1.2h-1.2v-0.6h1.2c0.4,0,0.6-0.2,0.6-0.6c0,0.1,0-0.6,0-2.2h0.7
			C108.8,52.5,108.8,53.2,108.8,53.2z M107.3,55.9h-0.7v-0.7h0.7V55.9z M108.5,55.9h-0.7v-0.7h0.7V55.9z"/>
		<path class="st0" d="M110.9,56.4h-1.5l0.2-0.3h0.4c-0.1-0.1-0.2-0.3-0.2-0.5c0-0.4,0.3-0.7,0.6-0.7c0.2,0,0.3,0.1,0.4,0.2
			l-0.1,0.2c-0.1-0.1-0.2-0.2-0.3-0.2c-0.2,0-0.3,0.1-0.3,0.4c0,0.3,0.1,0.4,0.4,0.4h0.4V56.4z M110.8,54.5h-0.7l0-6.2h0.7
			L110.8,54.5z"/>
		<path class="st0" d="M121,53.9v0.6h-0.8c-0.3,0-0.5-0.1-0.7-0.3c-0.2-0.2-0.4-0.5-0.4-0.8c0-0.5-0.1-1-0.2-1.2
			c-0.2-0.4-0.5-0.6-1-0.6c-0.3,0-0.6,0.1-0.8,0.3c-0.2,0.2-0.3,0.5-0.3,0.8h1.7l0,1.2c0,0.7-0.2,1.4-0.7,1.9
			c-0.5,0.5-1.1,0.8-1.8,0.8c-0.7,0-1.3-0.3-1.8-0.8c-0.5-0.5-0.7-1.2-0.7-1.9c0-0.2,0-0.6,0-1.2h0.7c0,0.2,0,0.6,0,1.2
			c0,0.6,0.2,1,0.6,1.4c0.4,0.4,0.8,0.6,1.3,0.6c0.5,0,1-0.2,1.3-0.6c0.4-0.4,0.6-0.9,0.6-1.4l0-0.5h-1.8c0-1.6,0.6-2.4,1.8-2.4
			c0.7,0,1.2,0.3,1.5,1c0.1,0.3,0.2,0.8,0.3,1.4c0,0.3,0.3,0.6,0.6,0.6H121z"/>
		<path class="st0" d="M127.7,54.5h-7.1l0-0.6h1.5c-0.3-0.3-0.4-0.6-0.4-1.1c0-0.5,0.1-0.9,0.4-1.2c-0.2,0.1-0.5,0.2-0.7,0.3
			l-0.2-0.5c0.6-0.3,1.3-0.4,1.9-0.4c1.7,0,2.7,1,2.9,2.9h1.6V54.5z M124,52.7c0-0.4-0.1-0.7-0.3-0.9c-0.2-0.2-0.3-0.3-0.6-0.3
			c-0.2,0-0.4,0.1-0.6,0.3c-0.2,0.2-0.2,0.5-0.2,0.9c0,0.4,0.1,0.7,0.3,0.9c0.2,0.2,0.4,0.3,0.6,0.3C123.7,53.9,124,53.5,124,52.7z
			 M125.5,53.9c0-0.4-0.2-0.9-0.4-1.3c-0.2-0.4-0.4-0.6-0.7-0.8c0.2,0.3,0.3,0.6,0.3,1c0,0.4-0.1,0.8-0.3,1.1H125.5z"/>
		<path class="st0" d="M132.4,53.9v0.6h-1c-0.5,0-0.9-0.1-1.4-0.3c-0.5,0.2-1,0.3-1.4,0.3h-1.1v-0.6h1.1c0.4,0,0.7,0,0.8,0
			c-0.4-0.2-0.6-0.5-0.8-0.9c-0.2-0.3-0.2-0.6-0.2-0.9c0-0.5,0.2-0.9,0.5-1.2c0.3-0.3,0.7-0.4,1.1-0.4c0.5,0,0.8,0.1,1.1,0.4
			c0.3,0.3,0.5,0.7,0.5,1.2c0,0.3-0.1,0.6-0.2,0.9c-0.2,0.4-0.4,0.7-0.8,0.9c0.1,0,0.4,0,0.8,0H132.4z M129.7,49.6H129v-0.7h0.7
			V49.6z M130.9,52c0-0.3-0.1-0.6-0.2-0.8c-0.2-0.2-0.4-0.4-0.7-0.4s-0.5,0.1-0.7,0.4c-0.2,0.2-0.2,0.5-0.2,0.8
			c0,0.4,0.1,0.8,0.4,1.1c0.2,0.3,0.4,0.4,0.5,0.4c0.2,0,0.3-0.1,0.6-0.4C130.8,52.8,130.9,52.4,130.9,52z M130.9,49.6h-0.7v-0.7
			h0.7V49.6z"/>
		<path class="st0" d="M136.4,52.7c0,1.1-0.6,1.8-1.6,1.8h-2.7v-0.6h1.4c-0.3-0.3-0.4-0.7-0.4-1.2c0-1.1,0.6-1.8,1.6-1.8
			c0.5,0,0.9,0.2,1.2,0.6C136.2,51.8,136.4,52.2,136.4,52.7z M135.7,52.7c0-0.4-0.1-0.7-0.3-0.9c-0.2-0.2-0.4-0.3-0.7-0.3
			c-0.3,0-0.5,0.1-0.6,0.3c-0.2,0.2-0.3,0.5-0.3,0.9c0,0.4,0.1,0.7,0.3,0.9c0.2,0.2,0.4,0.3,0.7,0.3c0.3,0,0.5-0.1,0.6-0.3
			C135.6,53.4,135.7,53.1,135.7,52.7z"/>
	</g>
</g>
</svg>
