<?xml version="1.0" encoding="utf-8"?>
<!-- Generator: Adobe Illustrator 19.1.0, SVG Export Plug-In . SVG Version: 6.00 Build 0)  -->
<svg version="1.1" id="Capa_1" xmlns="http://www.w3.org/2000/svg" xmlns:xlink="http://www.w3.org/1999/xlink" x="0px" y="0px"
	 viewBox="-414 176 450 450" style="enable-background:new -414 176 450 450;" xml:space="preserve">
<style type="text/css">
	.st0{fill:#54282A;}
</style>
<g>
	<path class="st0" d="M-22,305.3c-12.1,5.4-25,9-38.6,10.6c13.9-8.3,24.6-21.5,29.6-37.2c-13,7.7-27.4,13.3-42.7,16.3
		c-12.3-13.1-29.8-21.2-49.1-21.2c-37.2,0-67.3,30.1-67.3,67.3c0,5.3,0.6,10.4,1.7,15.3c-55.9-2.8-105.5-29.6-138.7-70.3
		c-5.8,9.9-9.1,21.5-9.1,33.8c0,23.3,11.9,43.9,29.9,56c-11-0.3-21.4-3.4-30.5-8.4c0,0.3,0,0.6,0,0.8c0,32.6,23.2,59.8,54,66
		c-5.6,1.5-11.6,2.4-17.7,2.4c-4.3,0-8.6-0.4-12.7-1.2c8.6,26.7,33.4,46.2,62.9,46.7c-23,18.1-52,28.8-83.6,28.8
		c-5.4,0-10.8-0.3-16.1-0.9c29.8,19.1,65.2,30.2,103.2,30.2c123.8,0,191.5-102.5,191.5-191.5c0-2.9-0.1-5.8-0.2-8.7
		C-42.4,330.6-31,318.8-22,305.3z"/>
</g>
</svg>